<svg width="243" height="217" viewBox="0 0 243 217" fill="none" xmlns="http://www.w3.org/2000/svg">
<g clip-path="url(#clip0)">
<path d="M34.98 196.49C34.98 187.82 28.48 182.49 21.08 182.49C17.5471 182.74 14.2403 184.32 11.826 186.912C9.4117 189.503 8.06931 192.913 8.06931 196.455C8.06931 199.997 9.4117 203.407 11.826 205.998C14.2403 208.59 17.5471 210.17 21.08 210.42C28.48 210.42 34.98 205.13 34.98 196.42V196.49ZM-0.0200195 196.36C-0.0200195 184.5 9.13998 175.95 21.06 175.95C32.98 175.95 42.19 184.5 42.19 196.36C42.19 208.22 32.98 216.88 21.06 216.88C9.13998 216.88 -0.0200195 208.28 -0.0200195 196.36Z" fill="#414142"/>
<path d="M95.65 211.19C97.58 213.47 95.95 216.73 92.82 216.73C91.37 216.73 90.65 215.94 89.63 214.8L78.19 201.19L66.74 214.79C65.66 215.99 64.99 216.72 63.43 216.72C62.7824 216.75 62.1402 216.589 61.5831 216.258C61.0261 215.926 60.5787 215.438 60.2964 214.855C60.0142 214.271 59.9096 213.617 59.9955 212.975C60.0815 212.332 60.3543 211.729 60.78 211.24L73.78 196.37L61.32 181.86C60.8895 181.358 60.6167 180.74 60.5359 180.084C60.455 179.427 60.5696 178.762 60.8654 178.17C61.1611 177.579 61.6249 177.088 62.1985 176.759C62.7721 176.429 63.4301 176.277 64.09 176.32C65.48 176.32 66.32 177.04 67.4 178.32L78.4 191.5L89.4 178.32C90.48 177.11 91.2 176.32 92.71 176.32C95.71 176.32 97.46 179.57 95.42 181.86L82.74 196.31L95.65 211.19Z" fill="#414142"/>
<path d="M124.83 176.26C125.249 176.216 125.673 176.262 126.074 176.393C126.474 176.524 126.842 176.738 127.155 177.021C127.467 177.304 127.716 177.65 127.886 178.036C128.056 178.421 128.142 178.839 128.14 179.26V213.82C128.05 214.635 127.663 215.389 127.052 215.936C126.441 216.483 125.65 216.786 124.83 216.786C124.01 216.786 123.219 216.483 122.608 215.936C121.997 215.389 121.61 214.635 121.52 213.82V179.19C121.518 178.769 121.604 178.351 121.774 177.966C121.944 177.58 122.193 177.234 122.505 176.951C122.818 176.668 123.186 176.454 123.587 176.323C123.987 176.192 124.411 176.146 124.83 176.19" fill="#414142"/>
<path d="M162.66 210.19H167.47C175.54 210.19 181.68 205.19 181.68 196.46C181.68 187.92 175.6 182.8 167.53 182.8H162.66C161.81 182.8 161.45 183.16 161.45 184.18V208.81C161.45 209.89 161.81 210.19 162.66 210.19ZM154.83 213.44V179.51C154.805 179.117 154.867 178.723 155.012 178.357C155.156 177.991 155.379 177.661 155.666 177.391C155.952 177.121 156.295 176.917 156.669 176.794C157.043 176.671 157.439 176.632 157.83 176.68H166.5C180.5 176.68 188.9 184.93 188.9 196.42C188.9 207.91 180.53 216.29 166.5 216.29H157.84C157.444 216.337 157.043 216.296 156.665 216.169C156.287 216.042 155.942 215.833 155.655 215.556C155.368 215.28 155.146 214.943 155.005 214.57C154.864 214.197 154.808 213.797 154.84 213.4" fill="#414142"/>
<path d="M221.08 210.19H239.5C240.314 210.19 241.095 210.513 241.671 211.089C242.246 211.665 242.57 212.446 242.57 213.26C242.57 214.074 242.246 214.855 241.671 215.431C241.095 216.007 240.314 216.33 239.5 216.33H216.5C214.5 216.33 213.25 215.25 213.25 213.26V179.75C213.227 179.325 213.297 178.9 213.455 178.505C213.612 178.11 213.854 177.754 214.164 177.462C214.473 177.17 214.842 176.949 215.246 176.814C215.649 176.678 216.077 176.633 216.5 176.68H239.2C240.006 176.68 240.779 177 241.349 177.57C241.92 178.14 242.24 178.914 242.24 179.72C242.24 180.526 241.92 181.299 241.349 181.87C240.779 182.44 240.006 182.76 239.2 182.76H221.08C220.24 182.76 219.87 183.12 219.87 184.14V193.42H233.6C234.01 193.377 234.425 193.424 234.816 193.558C235.206 193.692 235.563 193.909 235.86 194.194C236.158 194.48 236.39 194.827 236.541 195.211C236.691 195.596 236.755 196.008 236.73 196.42C236.755 196.83 236.689 197.24 236.538 197.621C236.387 198.003 236.154 198.346 235.855 198.628C235.557 198.909 235.2 199.122 234.81 199.25C234.42 199.378 234.007 199.419 233.6 199.37H219.87V208.76C219.87 209.84 220.24 210.14 221.08 210.14" fill="#414142"/>
<path d="M121.92 142.92C107.877 142.92 94.1504 138.756 82.4745 130.954C70.7986 123.153 61.6983 112.064 56.3245 99.0905C50.9507 86.117 49.5446 71.8413 52.2842 58.0686C55.0237 44.296 61.7858 31.645 71.7154 21.7154C81.6449 11.7859 94.2959 5.02381 108.069 2.28426C121.841 -0.455291 136.117 0.950746 149.09 6.32457C162.064 11.6984 173.153 20.7986 180.954 32.4745C188.756 44.1504 192.92 57.8775 192.92 71.92C192.87 72.8772 192.455 73.7788 191.76 74.4388C191.065 75.0987 190.143 75.4667 189.185 75.4667C188.227 75.4667 187.305 75.0987 186.61 74.4388C185.915 73.7788 185.499 72.8772 185.45 71.92C185.442 59.3663 181.713 47.0967 174.733 36.6619C167.754 26.2272 157.838 18.0957 146.238 13.2953C134.638 8.49481 121.876 7.24087 109.564 9.69192C97.2518 12.143 85.9426 18.189 77.0658 27.0658C68.1889 35.9426 62.1429 47.2518 59.6919 59.5639C57.2408 71.8761 58.4948 84.6385 63.2952 96.2381C68.0957 107.838 76.2271 117.754 86.6619 124.733C97.0966 131.713 109.366 135.442 121.92 135.45C122.877 135.5 123.779 135.915 124.439 136.61C125.099 137.305 125.467 138.227 125.467 139.185C125.467 140.143 125.099 141.065 124.439 141.76C123.779 142.455 122.877 142.87 121.92 142.92Z" fill="#414142"/>
<path d="M185.44 137.36C187.38 139.74 186.06 142.92 182.88 142.92C181.29 142.92 180.5 142.12 179.44 140.8L160.3 117.96L141.08 140.8C139.93 142.21 139.22 142.92 137.55 142.92C134.64 142.92 133.32 139.74 135.34 137.36L155.98 113.19L136.14 89.47C134.14 87 135.52 83.82 138.43 83.82C139.84 83.82 140.99 84.71 142.14 86.12L160.57 108.31L178.82 86.09C180.06 84.68 180.82 83.79 182.53 83.79C185.44 83.79 186.94 86.88 184.82 89.44L164.71 112.99L185.44 137.36Z" fill="#48D597"/>
</g>
<defs>
<clipPath id="clip0">
<path d="M0 0H242.69V216.95H0V0Z" fill="white"/>
</clipPath>
</defs>
</svg>
